<mxfile host="Electron" modified="2023-09-01T06:27:34.769Z" agent="Mozilla/5.0 (X11; Linux x86_64) AppleWebKit/537.36 (KHTML, like Gecko) draw.io/21.6.8 Chrome/114.0.5735.289 Electron/25.5.0 Safari/537.36" etag="hnsWJf954z-izuBS1fC8" version="21.6.8" type="device" pages="4">
  <diagram id="C5RBs43oDa-KdzZeNtuy" name="Class_Diagram">
    <mxGraphModel dx="1434" dy="843" grid="1" gridSize="10" guides="1" tooltips="1" connect="1" arrows="1" fold="1" page="1" pageScale="1" pageWidth="827" pageHeight="1169" math="0" shadow="0">
      <root>
        <mxCell id="WIyWlLk6GJQsqaUBKTNV-0" />
        <mxCell id="WIyWlLk6GJQsqaUBKTNV-1" parent="WIyWlLk6GJQsqaUBKTNV-0" />
        <mxCell id="zkfFHV4jXpPFQw0GAbJ--0" value="Course" style="swimlane;fontStyle=2;align=center;verticalAlign=top;childLayout=stackLayout;horizontal=1;startSize=26;horizontalStack=0;resizeParent=1;resizeLast=0;collapsible=1;marginBottom=0;rounded=0;shadow=0;strokeWidth=1;" parent="WIyWlLk6GJQsqaUBKTNV-1" vertex="1">
          <mxGeometry x="221" y="60" width="170" height="374" as="geometry">
            <mxRectangle x="230" y="140" width="160" height="26" as="alternateBounds" />
          </mxGeometry>
        </mxCell>
        <mxCell id="zkfFHV4jXpPFQw0GAbJ--1" value="-author:String" style="text;align=left;verticalAlign=top;spacingLeft=4;spacingRight=4;overflow=hidden;rotatable=0;points=[[0,0.5],[1,0.5]];portConstraint=eastwest;" parent="zkfFHV4jXpPFQw0GAbJ--0" vertex="1">
          <mxGeometry y="26" width="170" height="26" as="geometry" />
        </mxCell>
        <mxCell id="zkfFHV4jXpPFQw0GAbJ--2" value="-datePublished:String" style="text;align=left;verticalAlign=top;spacingLeft=4;spacingRight=4;overflow=hidden;rotatable=0;points=[[0,0.5],[1,0.5]];portConstraint=eastwest;rounded=0;shadow=0;html=0;" parent="zkfFHV4jXpPFQw0GAbJ--0" vertex="1">
          <mxGeometry y="52" width="170" height="26" as="geometry" />
        </mxCell>
        <mxCell id="zkfFHV4jXpPFQw0GAbJ--3" value="-cost:double" style="text;align=left;verticalAlign=top;spacingLeft=4;spacingRight=4;overflow=hidden;rotatable=0;points=[[0,0.5],[1,0.5]];portConstraint=eastwest;rounded=0;shadow=0;html=0;" parent="zkfFHV4jXpPFQw0GAbJ--0" vertex="1">
          <mxGeometry y="78" width="170" height="26" as="geometry" />
        </mxCell>
        <mxCell id="zITZ2MdgpzvweL4EX-Th-6" value="-rating:double" style="text;align=left;verticalAlign=top;spacingLeft=4;spacingRight=4;overflow=hidden;rotatable=0;points=[[0,0.5],[1,0.5]];portConstraint=eastwest;rounded=0;shadow=0;html=0;" parent="zkfFHV4jXpPFQw0GAbJ--0" vertex="1">
          <mxGeometry y="104" width="170" height="26" as="geometry" />
        </mxCell>
        <mxCell id="CVIOhL-Yy2P2ASbIYi3X-1" value="-id:int" style="text;align=left;verticalAlign=top;spacingLeft=4;spacingRight=4;overflow=hidden;rotatable=0;points=[[0,0.5],[1,0.5]];portConstraint=eastwest;rounded=0;shadow=0;html=0;" parent="zkfFHV4jXpPFQw0GAbJ--0" vertex="1">
          <mxGeometry y="130" width="170" height="34" as="geometry" />
        </mxCell>
        <mxCell id="zITZ2MdgpzvweL4EX-Th-26" value="-sections:ArrayList&lt;Section&gt;" style="text;align=left;verticalAlign=top;spacingLeft=4;spacingRight=4;overflow=hidden;rotatable=0;points=[[0,0.5],[1,0.5]];portConstraint=eastwest;rounded=0;shadow=0;html=0;" parent="zkfFHV4jXpPFQw0GAbJ--0" vertex="1">
          <mxGeometry y="164" width="170" height="26" as="geometry" />
        </mxCell>
        <mxCell id="zkfFHV4jXpPFQw0GAbJ--4" value="" style="line;html=1;strokeWidth=1;align=left;verticalAlign=middle;spacingTop=-1;spacingLeft=3;spacingRight=3;rotatable=0;labelPosition=right;points=[];portConstraint=eastwest;" parent="zkfFHV4jXpPFQw0GAbJ--0" vertex="1">
          <mxGeometry y="190" width="170" height="8" as="geometry" />
        </mxCell>
        <mxCell id="zkfFHV4jXpPFQw0GAbJ--5" value="+add(Section)" style="text;align=left;verticalAlign=top;spacingLeft=4;spacingRight=4;overflow=hidden;rotatable=0;points=[[0,0.5],[1,0.5]];portConstraint=eastwest;" parent="zkfFHV4jXpPFQw0GAbJ--0" vertex="1">
          <mxGeometry y="198" width="170" height="22" as="geometry" />
        </mxCell>
        <mxCell id="zITZ2MdgpzvweL4EX-Th-32" value="+remove(Section)" style="text;align=left;verticalAlign=top;spacingLeft=4;spacingRight=4;overflow=hidden;rotatable=0;points=[[0,0.5],[1,0.5]];portConstraint=eastwest;" parent="zkfFHV4jXpPFQw0GAbJ--0" vertex="1">
          <mxGeometry y="220" width="170" height="22" as="geometry" />
        </mxCell>
        <mxCell id="zITZ2MdgpzvweL4EX-Th-33" value="+edit(Section)" style="text;align=left;verticalAlign=top;spacingLeft=4;spacingRight=4;overflow=hidden;rotatable=0;points=[[0,0.5],[1,0.5]];portConstraint=eastwest;" parent="zkfFHV4jXpPFQw0GAbJ--0" vertex="1">
          <mxGeometry y="242" width="170" height="22" as="geometry" />
        </mxCell>
        <mxCell id="zITZ2MdgpzvweL4EX-Th-34" value="-search(Section)" style="text;align=left;verticalAlign=top;spacingLeft=4;spacingRight=4;overflow=hidden;rotatable=0;points=[[0,0.5],[1,0.5]];portConstraint=eastwest;" parent="zkfFHV4jXpPFQw0GAbJ--0" vertex="1">
          <mxGeometry y="264" width="170" height="22" as="geometry" />
        </mxCell>
        <mxCell id="zITZ2MdgpzvweL4EX-Th-35" value="+total()" style="text;align=left;verticalAlign=top;spacingLeft=4;spacingRight=4;overflow=hidden;rotatable=0;points=[[0,0.5],[1,0.5]];portConstraint=eastwest;" parent="zkfFHV4jXpPFQw0GAbJ--0" vertex="1">
          <mxGeometry y="286" width="170" height="22" as="geometry" />
        </mxCell>
        <mxCell id="zITZ2MdgpzvweL4EX-Th-36" value="+leastDuration()" style="text;align=left;verticalAlign=top;spacingLeft=4;spacingRight=4;overflow=hidden;rotatable=0;points=[[0,0.5],[1,0.5]];portConstraint=eastwest;" parent="zkfFHV4jXpPFQw0GAbJ--0" vertex="1">
          <mxGeometry y="308" width="170" height="22" as="geometry" />
        </mxCell>
        <mxCell id="zITZ2MdgpzvweL4EX-Th-37" value="+longestSection()" style="text;align=left;verticalAlign=top;spacingLeft=4;spacingRight=4;overflow=hidden;rotatable=0;points=[[0,0.5],[1,0.5]];portConstraint=eastwest;" parent="zkfFHV4jXpPFQw0GAbJ--0" vertex="1">
          <mxGeometry y="330" width="170" height="22" as="geometry" />
        </mxCell>
        <mxCell id="zITZ2MdgpzvweL4EX-Th-38" value="+moreLessonSection()" style="text;align=left;verticalAlign=top;spacingLeft=4;spacingRight=4;overflow=hidden;rotatable=0;points=[[0,0.5],[1,0.5]];portConstraint=eastwest;" parent="zkfFHV4jXpPFQw0GAbJ--0" vertex="1">
          <mxGeometry y="352" width="170" height="22" as="geometry" />
        </mxCell>
        <mxCell id="zITZ2MdgpzvweL4EX-Th-49" style="edgeStyle=orthogonalEdgeStyle;rounded=0;orthogonalLoop=1;jettySize=auto;html=1;exitX=0.5;exitY=0;exitDx=0;exitDy=0;" parent="WIyWlLk6GJQsqaUBKTNV-1" source="zITZ2MdgpzvweL4EX-Th-7" edge="1">
          <mxGeometry relative="1" as="geometry">
            <mxPoint x="280" y="430" as="targetPoint" />
          </mxGeometry>
        </mxCell>
        <mxCell id="zITZ2MdgpzvweL4EX-Th-7" value="Section" style="swimlane;fontStyle=2;align=center;verticalAlign=top;childLayout=stackLayout;horizontal=1;startSize=26;horizontalStack=0;resizeParent=1;resizeLast=0;collapsible=1;marginBottom=0;rounded=0;shadow=0;strokeWidth=1;" parent="WIyWlLk6GJQsqaUBKTNV-1" vertex="1">
          <mxGeometry x="580" y="471" width="160" height="218" as="geometry">
            <mxRectangle x="230" y="140" width="160" height="26" as="alternateBounds" />
          </mxGeometry>
        </mxCell>
        <mxCell id="zITZ2MdgpzvweL4EX-Th-9" value="-name:String" style="text;align=left;verticalAlign=top;spacingLeft=4;spacingRight=4;overflow=hidden;rotatable=0;points=[[0,0.5],[1,0.5]];portConstraint=eastwest;rounded=0;shadow=0;html=0;" parent="zITZ2MdgpzvweL4EX-Th-7" vertex="1">
          <mxGeometry y="26" width="160" height="26" as="geometry" />
        </mxCell>
        <mxCell id="zITZ2MdgpzvweL4EX-Th-8" value="-lessons:ArrayList&lt;Lesson&gt;" style="text;align=left;verticalAlign=top;spacingLeft=4;spacingRight=4;overflow=hidden;rotatable=0;points=[[0,0.5],[1,0.5]];portConstraint=eastwest;" parent="zITZ2MdgpzvweL4EX-Th-7" vertex="1">
          <mxGeometry y="52" width="160" height="26" as="geometry" />
        </mxCell>
        <mxCell id="zITZ2MdgpzvweL4EX-Th-12" value="" style="line;html=1;strokeWidth=1;align=left;verticalAlign=middle;spacingTop=-1;spacingLeft=3;spacingRight=3;rotatable=0;labelPosition=right;points=[];portConstraint=eastwest;" parent="zITZ2MdgpzvweL4EX-Th-7" vertex="1">
          <mxGeometry y="78" width="160" height="8" as="geometry" />
        </mxCell>
        <mxCell id="zITZ2MdgpzvweL4EX-Th-41" value="+add(Lesson)" style="text;align=left;verticalAlign=top;spacingLeft=4;spacingRight=4;overflow=hidden;rotatable=0;points=[[0,0.5],[1,0.5]];portConstraint=eastwest;" parent="zITZ2MdgpzvweL4EX-Th-7" vertex="1">
          <mxGeometry y="86" width="160" height="22" as="geometry" />
        </mxCell>
        <mxCell id="zITZ2MdgpzvweL4EX-Th-42" value="+remove(Lesson)" style="text;align=left;verticalAlign=top;spacingLeft=4;spacingRight=4;overflow=hidden;rotatable=0;points=[[0,0.5],[1,0.5]];portConstraint=eastwest;" parent="zITZ2MdgpzvweL4EX-Th-7" vertex="1">
          <mxGeometry y="108" width="160" height="22" as="geometry" />
        </mxCell>
        <mxCell id="zITZ2MdgpzvweL4EX-Th-43" value="-search(Lesson)" style="text;align=left;verticalAlign=top;spacingLeft=4;spacingRight=4;overflow=hidden;rotatable=0;points=[[0,0.5],[1,0.5]];portConstraint=eastwest;" parent="zITZ2MdgpzvweL4EX-Th-7" vertex="1">
          <mxGeometry y="130" width="160" height="22" as="geometry" />
        </mxCell>
        <mxCell id="zITZ2MdgpzvweL4EX-Th-44" value="+total()" style="text;align=left;verticalAlign=top;spacingLeft=4;spacingRight=4;overflow=hidden;rotatable=0;points=[[0,0.5],[1,0.5]];portConstraint=eastwest;" parent="zITZ2MdgpzvweL4EX-Th-7" vertex="1">
          <mxGeometry y="152" width="160" height="22" as="geometry" />
        </mxCell>
        <mxCell id="zITZ2MdgpzvweL4EX-Th-45" value="+longestLesson()" style="text;align=left;verticalAlign=top;spacingLeft=4;spacingRight=4;overflow=hidden;rotatable=0;points=[[0,0.5],[1,0.5]];portConstraint=eastwest;" parent="zITZ2MdgpzvweL4EX-Th-7" vertex="1">
          <mxGeometry y="174" width="160" height="22" as="geometry" />
        </mxCell>
        <mxCell id="zITZ2MdgpzvweL4EX-Th-46" value="+find(String)" style="text;align=left;verticalAlign=top;spacingLeft=4;spacingRight=4;overflow=hidden;rotatable=0;points=[[0,0.5],[1,0.5]];portConstraint=eastwest;" parent="zITZ2MdgpzvweL4EX-Th-7" vertex="1">
          <mxGeometry y="196" width="160" height="22" as="geometry" />
        </mxCell>
        <mxCell id="zITZ2MdgpzvweL4EX-Th-48" style="edgeStyle=orthogonalEdgeStyle;rounded=0;orthogonalLoop=1;jettySize=auto;html=1;exitX=0.5;exitY=0;exitDx=0;exitDy=0;" parent="WIyWlLk6GJQsqaUBKTNV-1" source="zITZ2MdgpzvweL4EX-Th-17" edge="1">
          <mxGeometry relative="1" as="geometry">
            <mxPoint x="660" y="690" as="targetPoint" />
          </mxGeometry>
        </mxCell>
        <mxCell id="zITZ2MdgpzvweL4EX-Th-17" value="Lesson" style="swimlane;fontStyle=2;align=center;verticalAlign=top;childLayout=stackLayout;horizontal=1;startSize=26;horizontalStack=0;resizeParent=1;resizeLast=0;collapsible=1;marginBottom=0;rounded=0;shadow=0;strokeWidth=1;" parent="WIyWlLk6GJQsqaUBKTNV-1" vertex="1">
          <mxGeometry x="221" y="745" width="160" height="124" as="geometry">
            <mxRectangle x="230" y="140" width="160" height="26" as="alternateBounds" />
          </mxGeometry>
        </mxCell>
        <mxCell id="zITZ2MdgpzvweL4EX-Th-47" value="-name:String" style="text;align=left;verticalAlign=top;spacingLeft=4;spacingRight=4;overflow=hidden;rotatable=0;points=[[0,0.5],[1,0.5]];portConstraint=eastwest;rounded=0;shadow=0;html=0;" parent="zITZ2MdgpzvweL4EX-Th-17" vertex="1">
          <mxGeometry y="26" width="160" height="26" as="geometry" />
        </mxCell>
        <mxCell id="zITZ2MdgpzvweL4EX-Th-18" value="-duration(in mins):double" style="text;align=left;verticalAlign=top;spacingLeft=4;spacingRight=4;overflow=hidden;rotatable=0;points=[[0,0.5],[1,0.5]];portConstraint=eastwest;" parent="zITZ2MdgpzvweL4EX-Th-17" vertex="1">
          <mxGeometry y="52" width="160" height="26" as="geometry" />
        </mxCell>
        <mxCell id="Nst8pRZiejmQ-0LRvvXw-0" value="-type:String" style="text;align=left;verticalAlign=top;spacingLeft=4;spacingRight=4;overflow=hidden;rotatable=0;points=[[0,0.5],[1,0.5]];portConstraint=eastwest;" parent="zITZ2MdgpzvweL4EX-Th-17" vertex="1">
          <mxGeometry y="78" width="160" height="26" as="geometry" />
        </mxCell>
        <mxCell id="zITZ2MdgpzvweL4EX-Th-22" value="" style="line;html=1;strokeWidth=1;align=left;verticalAlign=middle;spacingTop=-1;spacingLeft=3;spacingRight=3;rotatable=0;labelPosition=right;points=[];portConstraint=eastwest;" parent="zITZ2MdgpzvweL4EX-Th-17" vertex="1">
          <mxGeometry y="104" width="160" height="20" as="geometry" />
        </mxCell>
      </root>
    </mxGraphModel>
  </diagram>
  <diagram id="3-Upqnk6KH5Ovk8Y7SDq" name="Component_Diagram">
    <mxGraphModel dx="1434" dy="843" grid="1" gridSize="10" guides="1" tooltips="1" connect="1" arrows="1" fold="1" page="1" pageScale="1" pageWidth="827" pageHeight="1169" math="0" shadow="0">
      <root>
        <mxCell id="0" />
        <mxCell id="1" parent="0" />
        <mxCell id="WNnhAzUTKm1ShnoGuAW6-3" value="Course" style="shape=module;align=left;spacingLeft=20;align=center;verticalAlign=top;whiteSpace=wrap;html=1;" parent="1" vertex="1">
          <mxGeometry x="320" y="560" width="100" height="50" as="geometry" />
        </mxCell>
        <mxCell id="WNnhAzUTKm1ShnoGuAW6-14" style="edgeStyle=orthogonalEdgeStyle;rounded=0;orthogonalLoop=1;jettySize=auto;html=1;" parent="1" source="WNnhAzUTKm1ShnoGuAW6-13" edge="1">
          <mxGeometry relative="1" as="geometry">
            <mxPoint x="364" y="550" as="targetPoint" />
          </mxGeometry>
        </mxCell>
        <mxCell id="WNnhAzUTKm1ShnoGuAW6-13" value="Application" style="shape=module;align=left;spacingLeft=20;align=center;verticalAlign=top;whiteSpace=wrap;html=1;" parent="1" vertex="1">
          <mxGeometry x="314" y="360" width="100" height="50" as="geometry" />
        </mxCell>
      </root>
    </mxGraphModel>
  </diagram>
  <diagram id="_5IayEcHcy8pfKeAZvXU" name="Sequential_Diagram">
    <mxGraphModel dx="1687" dy="992" grid="1" gridSize="10" guides="1" tooltips="1" connect="1" arrows="1" fold="1" page="1" pageScale="1" pageWidth="827" pageHeight="1169" math="0" shadow="0">
      <root>
        <mxCell id="0" />
        <mxCell id="1" parent="0" />
        <mxCell id="6bYIHOK9dWR5kiVuX88q-10" value="" style="html=1;points=[];perimeter=orthogonalPerimeter;outlineConnect=0;targetShapes=umlLifeline;portConstraint=eastwest;newEdgeStyle={&quot;edgeStyle&quot;:&quot;elbowEdgeStyle&quot;,&quot;elbow&quot;:&quot;vertical&quot;,&quot;curved&quot;:0,&quot;rounded&quot;:0};" parent="1" vertex="1">
          <mxGeometry x="295" y="170" width="10" height="2100" as="geometry" />
        </mxCell>
        <mxCell id="fWIIAYlJlUgWAXTDILyd-1" value="" style="shape=umlLifeline;perimeter=lifelinePerimeter;whiteSpace=wrap;html=1;container=1;dropTarget=0;collapsible=0;recursiveResize=0;outlineConnect=0;portConstraint=eastwest;newEdgeStyle={&quot;edgeStyle&quot;:&quot;elbowEdgeStyle&quot;,&quot;elbow&quot;:&quot;vertical&quot;,&quot;curved&quot;:0,&quot;rounded&quot;:0};participant=umlActor;" parent="1" vertex="1">
          <mxGeometry x="70" y="70" width="20" height="2270" as="geometry" />
        </mxCell>
        <mxCell id="fWIIAYlJlUgWAXTDILyd-2" value="Course" style="shape=umlLifeline;perimeter=lifelinePerimeter;whiteSpace=wrap;html=1;container=1;dropTarget=0;collapsible=0;recursiveResize=0;outlineConnect=0;portConstraint=eastwest;newEdgeStyle={&quot;edgeStyle&quot;:&quot;elbowEdgeStyle&quot;,&quot;elbow&quot;:&quot;vertical&quot;,&quot;curved&quot;:0,&quot;rounded&quot;:0};" parent="1" vertex="1">
          <mxGeometry x="250" y="70" width="100" height="2270" as="geometry" />
        </mxCell>
        <mxCell id="fWIIAYlJlUgWAXTDILyd-3" value="Section" style="shape=umlLifeline;perimeter=lifelinePerimeter;whiteSpace=wrap;html=1;container=1;dropTarget=0;collapsible=0;recursiveResize=0;outlineConnect=0;portConstraint=eastwest;newEdgeStyle={&quot;edgeStyle&quot;:&quot;elbowEdgeStyle&quot;,&quot;elbow&quot;:&quot;vertical&quot;,&quot;curved&quot;:0,&quot;rounded&quot;:0};" parent="1" vertex="1">
          <mxGeometry x="470" y="70" width="100" height="2270" as="geometry" />
        </mxCell>
        <mxCell id="6bYIHOK9dWR5kiVuX88q-13" value="" style="html=1;points=[];perimeter=orthogonalPerimeter;outlineConnect=0;targetShapes=umlLifeline;portConstraint=eastwest;newEdgeStyle={&quot;edgeStyle&quot;:&quot;elbowEdgeStyle&quot;,&quot;elbow&quot;:&quot;vertical&quot;,&quot;curved&quot;:0,&quot;rounded&quot;:0};" parent="fWIIAYlJlUgWAXTDILyd-3" vertex="1">
          <mxGeometry x="45" y="1200" width="10" height="1000" as="geometry" />
        </mxCell>
        <mxCell id="fWIIAYlJlUgWAXTDILyd-4" value="Lesson" style="shape=umlLifeline;perimeter=lifelinePerimeter;whiteSpace=wrap;html=1;container=1;dropTarget=0;collapsible=0;recursiveResize=0;outlineConnect=0;portConstraint=eastwest;newEdgeStyle={&quot;edgeStyle&quot;:&quot;elbowEdgeStyle&quot;,&quot;elbow&quot;:&quot;vertical&quot;,&quot;curved&quot;:0,&quot;rounded&quot;:0};" parent="1" vertex="1">
          <mxGeometry x="660" y="70" width="100" height="2270" as="geometry" />
        </mxCell>
        <mxCell id="6bYIHOK9dWR5kiVuX88q-12" value="" style="html=1;points=[];perimeter=orthogonalPerimeter;outlineConnect=0;targetShapes=umlLifeline;portConstraint=eastwest;newEdgeStyle={&quot;edgeStyle&quot;:&quot;elbowEdgeStyle&quot;,&quot;elbow&quot;:&quot;vertical&quot;,&quot;curved&quot;:0,&quot;rounded&quot;:0};" parent="fWIIAYlJlUgWAXTDILyd-4" vertex="1">
          <mxGeometry x="45" y="1580" width="10" height="340" as="geometry" />
        </mxCell>
        <mxCell id="9pBamdSA04xuNmQOdVEE-3" value="To Add a Section" style="html=1;verticalAlign=bottom;endArrow=block;edgeStyle=elbowEdgeStyle;elbow=vertical;curved=0;rounded=0;" parent="1" edge="1">
          <mxGeometry width="80" relative="1" as="geometry">
            <mxPoint x="80" y="190" as="sourcePoint" />
            <mxPoint x="300" y="190" as="targetPoint" />
          </mxGeometry>
        </mxCell>
        <mxCell id="9pBamdSA04xuNmQOdVEE-4" value="Alternative" style="shape=umlFrame;whiteSpace=wrap;html=1;pointerEvents=0;width=76;height=30;" parent="1" vertex="1">
          <mxGeometry x="10" y="240" width="360" height="160" as="geometry" />
        </mxCell>
        <mxCell id="9pBamdSA04xuNmQOdVEE-7" value="Section Already Exist in the List" style="html=1;verticalAlign=bottom;endArrow=open;dashed=1;endSize=8;edgeStyle=elbowEdgeStyle;elbow=vertical;curved=0;rounded=0;" parent="1" edge="1">
          <mxGeometry relative="1" as="geometry">
            <mxPoint x="300" y="290" as="sourcePoint" />
            <mxPoint x="79.5" y="290" as="targetPoint" />
          </mxGeometry>
        </mxCell>
        <mxCell id="_nA0ZAv1kjZIPs0XtCLw-1" value="[if section exists]" style="text;html=1;strokeColor=none;fillColor=none;align=center;verticalAlign=middle;whiteSpace=wrap;rounded=0;" parent="1" vertex="1">
          <mxGeometry x="10" y="280" width="60" height="30" as="geometry" />
        </mxCell>
        <mxCell id="_nA0ZAv1kjZIPs0XtCLw-3" value="" style="endArrow=none;dashed=1;html=1;dashPattern=1 3;strokeWidth=2;rounded=0;entryX=1.01;entryY=0.513;entryDx=0;entryDy=0;entryPerimeter=0;exitX=0;exitY=0.513;exitDx=0;exitDy=0;exitPerimeter=0;" parent="1" source="9pBamdSA04xuNmQOdVEE-4" target="9pBamdSA04xuNmQOdVEE-4" edge="1">
          <mxGeometry width="50" height="50" relative="1" as="geometry">
            <mxPoint x="210" y="322" as="sourcePoint" />
            <mxPoint x="430" y="330" as="targetPoint" />
          </mxGeometry>
        </mxCell>
        <mxCell id="_nA0ZAv1kjZIPs0XtCLw-4" value="[else]" style="text;html=1;strokeColor=none;fillColor=none;align=center;verticalAlign=middle;whiteSpace=wrap;rounded=0;" parent="1" vertex="1">
          <mxGeometry x="10" y="340" width="60" height="30" as="geometry" />
        </mxCell>
        <mxCell id="_nA0ZAv1kjZIPs0XtCLw-6" value="Section Added" style="html=1;verticalAlign=bottom;endArrow=open;dashed=1;endSize=8;edgeStyle=elbowEdgeStyle;elbow=vertical;curved=0;rounded=0;" parent="1" edge="1">
          <mxGeometry relative="1" as="geometry">
            <mxPoint x="300" y="370" as="sourcePoint" />
            <mxPoint x="79.5" y="370" as="targetPoint" />
          </mxGeometry>
        </mxCell>
        <mxCell id="_nA0ZAv1kjZIPs0XtCLw-7" value="Alternative" style="shape=umlFrame;whiteSpace=wrap;html=1;pointerEvents=0;width=76;height=30;" parent="1" vertex="1">
          <mxGeometry x="10" y="442" width="590" height="160" as="geometry" />
        </mxCell>
        <mxCell id="_nA0ZAv1kjZIPs0XtCLw-8" value="To Add a Lesson" style="html=1;verticalAlign=bottom;endArrow=block;edgeStyle=elbowEdgeStyle;elbow=vertical;curved=0;rounded=0;" parent="1" edge="1">
          <mxGeometry width="80" relative="1" as="geometry">
            <mxPoint x="80" y="420" as="sourcePoint" />
            <mxPoint x="520" y="420" as="targetPoint" />
          </mxGeometry>
        </mxCell>
        <mxCell id="_nA0ZAv1kjZIPs0XtCLw-9" value="[if lesson exists]" style="text;html=1;strokeColor=none;fillColor=none;align=center;verticalAlign=middle;whiteSpace=wrap;rounded=0;" parent="1" vertex="1">
          <mxGeometry x="10" y="490" width="60" height="30" as="geometry" />
        </mxCell>
        <mxCell id="_nA0ZAv1kjZIPs0XtCLw-10" value="[else]" style="text;html=1;strokeColor=none;fillColor=none;align=center;verticalAlign=middle;whiteSpace=wrap;rounded=0;" parent="1" vertex="1">
          <mxGeometry x="10" y="550" width="60" height="30" as="geometry" />
        </mxCell>
        <mxCell id="_nA0ZAv1kjZIPs0XtCLw-11" value="" style="endArrow=none;dashed=1;html=1;dashPattern=1 3;strokeWidth=2;rounded=0;entryX=0.999;entryY=0.531;entryDx=0;entryDy=0;entryPerimeter=0;exitX=-0.004;exitY=0.538;exitDx=0;exitDy=0;exitPerimeter=0;" parent="1" target="_nA0ZAv1kjZIPs0XtCLw-7" edge="1">
          <mxGeometry width="50" height="50" relative="1" as="geometry">
            <mxPoint x="16.920000000000073" y="528.0799999999999" as="sourcePoint" />
            <mxPoint x="789" y="532" as="targetPoint" />
          </mxGeometry>
        </mxCell>
        <mxCell id="_nA0ZAv1kjZIPs0XtCLw-12" value="Lesson Already Exist in the list" style="html=1;verticalAlign=bottom;endArrow=open;dashed=1;endSize=8;edgeStyle=elbowEdgeStyle;elbow=vertical;curved=0;rounded=0;" parent="1" edge="1">
          <mxGeometry relative="1" as="geometry">
            <mxPoint x="520" y="505" as="sourcePoint" />
            <mxPoint x="79.5" y="505" as="targetPoint" />
          </mxGeometry>
        </mxCell>
        <mxCell id="_nA0ZAv1kjZIPs0XtCLw-13" value="Lesson Added" style="html=1;verticalAlign=bottom;endArrow=open;dashed=1;endSize=8;edgeStyle=elbowEdgeStyle;elbow=vertical;curved=0;rounded=0;" parent="1" edge="1">
          <mxGeometry relative="1" as="geometry">
            <mxPoint x="520" y="570" as="sourcePoint" />
            <mxPoint x="79.5" y="570" as="targetPoint" />
          </mxGeometry>
        </mxCell>
        <mxCell id="_nA0ZAv1kjZIPs0XtCLw-14" value="Count&amp;nbsp; the Sections" style="html=1;verticalAlign=bottom;endArrow=block;edgeStyle=elbowEdgeStyle;elbow=vertical;curved=0;rounded=0;" parent="1" target="fWIIAYlJlUgWAXTDILyd-2" edge="1">
          <mxGeometry width="80" relative="1" as="geometry">
            <mxPoint x="80" y="660" as="sourcePoint" />
            <mxPoint x="299.5" y="660" as="targetPoint" />
          </mxGeometry>
        </mxCell>
        <mxCell id="_nA0ZAv1kjZIPs0XtCLw-15" value="return&amp;nbsp; sections count" style="html=1;verticalAlign=bottom;endArrow=open;dashed=1;endSize=8;edgeStyle=elbowEdgeStyle;elbow=vertical;curved=0;rounded=0;" parent="1" target="fWIIAYlJlUgWAXTDILyd-1" edge="1">
          <mxGeometry x="-0.0023" relative="1" as="geometry">
            <mxPoint x="300" y="700" as="sourcePoint" />
            <mxPoint x="440" y="700" as="targetPoint" />
            <mxPoint as="offset" />
          </mxGeometry>
        </mxCell>
        <mxCell id="_nA0ZAv1kjZIPs0XtCLw-16" value="Count&amp;nbsp; the Lessons" style="html=1;verticalAlign=bottom;endArrow=block;edgeStyle=elbowEdgeStyle;elbow=vertical;curved=0;rounded=0;" parent="1" target="fWIIAYlJlUgWAXTDILyd-3" edge="1">
          <mxGeometry width="80" relative="1" as="geometry">
            <mxPoint x="80" y="740" as="sourcePoint" />
            <mxPoint x="270" y="740" as="targetPoint" />
          </mxGeometry>
        </mxCell>
        <mxCell id="_nA0ZAv1kjZIPs0XtCLw-18" value="return&amp;nbsp; lessons count" style="html=1;verticalAlign=bottom;endArrow=open;dashed=1;endSize=8;edgeStyle=elbowEdgeStyle;elbow=vertical;curved=0;rounded=0;" parent="1" source="fWIIAYlJlUgWAXTDILyd-3" edge="1">
          <mxGeometry relative="1" as="geometry">
            <mxPoint x="275" y="780" as="sourcePoint" />
            <mxPoint x="79.5" y="780" as="targetPoint" />
          </mxGeometry>
        </mxCell>
        <mxCell id="_nA0ZAv1kjZIPs0XtCLw-21" value="Alternative" style="shape=umlFrame;whiteSpace=wrap;html=1;pointerEvents=0;width=76;height=30;" parent="1" vertex="1">
          <mxGeometry x="10" y="860" width="360" height="160" as="geometry" />
        </mxCell>
        <mxCell id="_nA0ZAv1kjZIPs0XtCLw-22" value="Section Name EditedSucessfully" style="html=1;verticalAlign=bottom;endArrow=open;dashed=1;endSize=8;edgeStyle=elbowEdgeStyle;elbow=vertical;curved=0;rounded=0;" parent="1" edge="1">
          <mxGeometry relative="1" as="geometry">
            <mxPoint x="300" y="910" as="sourcePoint" />
            <mxPoint x="79.5" y="910" as="targetPoint" />
          </mxGeometry>
        </mxCell>
        <mxCell id="_nA0ZAv1kjZIPs0XtCLw-23" value="[if section exists]" style="text;html=1;strokeColor=none;fillColor=none;align=center;verticalAlign=middle;whiteSpace=wrap;rounded=0;" parent="1" vertex="1">
          <mxGeometry x="10" y="900" width="60" height="30" as="geometry" />
        </mxCell>
        <mxCell id="_nA0ZAv1kjZIPs0XtCLw-24" value="" style="endArrow=none;dashed=1;html=1;dashPattern=1 3;strokeWidth=2;rounded=0;entryX=1.01;entryY=0.513;entryDx=0;entryDy=0;entryPerimeter=0;exitX=0;exitY=0.513;exitDx=0;exitDy=0;exitPerimeter=0;" parent="1" source="_nA0ZAv1kjZIPs0XtCLw-21" target="_nA0ZAv1kjZIPs0XtCLw-21" edge="1">
          <mxGeometry width="50" height="50" relative="1" as="geometry">
            <mxPoint x="210" y="942" as="sourcePoint" />
            <mxPoint x="430" y="950" as="targetPoint" />
          </mxGeometry>
        </mxCell>
        <mxCell id="_nA0ZAv1kjZIPs0XtCLw-25" value="[else]" style="text;html=1;strokeColor=none;fillColor=none;align=center;verticalAlign=middle;whiteSpace=wrap;rounded=0;" parent="1" vertex="1">
          <mxGeometry x="10" y="960" width="60" height="30" as="geometry" />
        </mxCell>
        <mxCell id="_nA0ZAv1kjZIPs0XtCLw-26" value="Section Not Available" style="html=1;verticalAlign=bottom;endArrow=open;dashed=1;endSize=8;edgeStyle=elbowEdgeStyle;elbow=vertical;curved=0;rounded=0;" parent="1" edge="1">
          <mxGeometry relative="1" as="geometry">
            <mxPoint x="300" y="990" as="sourcePoint" />
            <mxPoint x="79.5" y="990" as="targetPoint" />
          </mxGeometry>
        </mxCell>
        <mxCell id="_nA0ZAv1kjZIPs0XtCLw-27" value="To Edit Section Name" style="html=1;verticalAlign=bottom;endArrow=block;edgeStyle=elbowEdgeStyle;elbow=vertical;curved=0;rounded=0;" parent="1" edge="1">
          <mxGeometry width="80" relative="1" as="geometry">
            <mxPoint x="80" y="830" as="sourcePoint" />
            <mxPoint x="300" y="830" as="targetPoint" />
          </mxGeometry>
        </mxCell>
        <mxCell id="_nA0ZAv1kjZIPs0XtCLw-34" value="Alternative" style="shape=umlFrame;whiteSpace=wrap;html=1;pointerEvents=0;width=76;height=30;" parent="1" vertex="1">
          <mxGeometry x="10" y="1110" width="360" height="160" as="geometry" />
        </mxCell>
        <mxCell id="_nA0ZAv1kjZIPs0XtCLw-35" value="Section Removed" style="html=1;verticalAlign=bottom;endArrow=open;dashed=1;endSize=8;edgeStyle=elbowEdgeStyle;elbow=vertical;curved=0;rounded=0;" parent="1" edge="1">
          <mxGeometry relative="1" as="geometry">
            <mxPoint x="300" y="1160" as="sourcePoint" />
            <mxPoint x="79.5" y="1160" as="targetPoint" />
          </mxGeometry>
        </mxCell>
        <mxCell id="_nA0ZAv1kjZIPs0XtCLw-36" value="[if section exists]" style="text;html=1;strokeColor=none;fillColor=none;align=center;verticalAlign=middle;whiteSpace=wrap;rounded=0;" parent="1" vertex="1">
          <mxGeometry x="10" y="1150" width="60" height="30" as="geometry" />
        </mxCell>
        <mxCell id="_nA0ZAv1kjZIPs0XtCLw-37" value="" style="endArrow=none;dashed=1;html=1;dashPattern=1 3;strokeWidth=2;rounded=0;entryX=1.01;entryY=0.513;entryDx=0;entryDy=0;entryPerimeter=0;exitX=0;exitY=0.513;exitDx=0;exitDy=0;exitPerimeter=0;" parent="1" source="_nA0ZAv1kjZIPs0XtCLw-34" target="_nA0ZAv1kjZIPs0XtCLw-34" edge="1">
          <mxGeometry width="50" height="50" relative="1" as="geometry">
            <mxPoint x="210" y="1192" as="sourcePoint" />
            <mxPoint x="430" y="1200" as="targetPoint" />
          </mxGeometry>
        </mxCell>
        <mxCell id="_nA0ZAv1kjZIPs0XtCLw-38" value="[else]" style="text;html=1;strokeColor=none;fillColor=none;align=center;verticalAlign=middle;whiteSpace=wrap;rounded=0;" parent="1" vertex="1">
          <mxGeometry x="10" y="1210" width="60" height="30" as="geometry" />
        </mxCell>
        <mxCell id="_nA0ZAv1kjZIPs0XtCLw-39" value="Section Not Available" style="html=1;verticalAlign=bottom;endArrow=open;dashed=1;endSize=8;edgeStyle=elbowEdgeStyle;elbow=vertical;curved=0;rounded=0;" parent="1" edge="1">
          <mxGeometry relative="1" as="geometry">
            <mxPoint x="300" y="1240" as="sourcePoint" />
            <mxPoint x="79.5" y="1240" as="targetPoint" />
          </mxGeometry>
        </mxCell>
        <mxCell id="_nA0ZAv1kjZIPs0XtCLw-40" value="To Remove a Section" style="html=1;verticalAlign=bottom;endArrow=block;edgeStyle=elbowEdgeStyle;elbow=vertical;curved=0;rounded=0;" parent="1" edge="1">
          <mxGeometry width="80" relative="1" as="geometry">
            <mxPoint x="80" y="1070" as="sourcePoint" />
            <mxPoint x="300" y="1070" as="targetPoint" />
          </mxGeometry>
        </mxCell>
        <mxCell id="_nA0ZAv1kjZIPs0XtCLw-44" value="Alternative" style="shape=umlFrame;whiteSpace=wrap;html=1;pointerEvents=0;width=76;height=30;" parent="1" vertex="1">
          <mxGeometry x="10" y="1332" width="590" height="160" as="geometry" />
        </mxCell>
        <mxCell id="_nA0ZAv1kjZIPs0XtCLw-45" value="[if lesson exists]" style="text;html=1;strokeColor=none;fillColor=none;align=center;verticalAlign=middle;whiteSpace=wrap;rounded=0;" parent="1" vertex="1">
          <mxGeometry x="10" y="1380" width="60" height="30" as="geometry" />
        </mxCell>
        <mxCell id="_nA0ZAv1kjZIPs0XtCLw-46" value="[else]" style="text;html=1;strokeColor=none;fillColor=none;align=center;verticalAlign=middle;whiteSpace=wrap;rounded=0;" parent="1" vertex="1">
          <mxGeometry x="10" y="1440" width="60" height="30" as="geometry" />
        </mxCell>
        <mxCell id="_nA0ZAv1kjZIPs0XtCLw-47" value="Lesson Removed" style="html=1;verticalAlign=bottom;endArrow=open;dashed=1;endSize=8;edgeStyle=elbowEdgeStyle;elbow=vertical;curved=0;rounded=0;" parent="1" edge="1">
          <mxGeometry relative="1" as="geometry">
            <mxPoint x="520" y="1395" as="sourcePoint" />
            <mxPoint x="79.5" y="1395" as="targetPoint" />
          </mxGeometry>
        </mxCell>
        <mxCell id="_nA0ZAv1kjZIPs0XtCLw-48" value="Lesson Added" style="html=1;verticalAlign=bottom;endArrow=open;dashed=1;endSize=8;edgeStyle=elbowEdgeStyle;elbow=vertical;curved=0;rounded=0;" parent="1" edge="1">
          <mxGeometry relative="1" as="geometry">
            <mxPoint x="520" y="1460" as="sourcePoint" />
            <mxPoint x="79.5" y="1460" as="targetPoint" />
          </mxGeometry>
        </mxCell>
        <mxCell id="_nA0ZAv1kjZIPs0XtCLw-49" value="To Remove a Lesson" style="html=1;verticalAlign=bottom;endArrow=block;edgeStyle=elbowEdgeStyle;elbow=vertical;curved=0;rounded=0;" parent="1" edge="1">
          <mxGeometry width="80" relative="1" as="geometry">
            <mxPoint x="80" y="1300" as="sourcePoint" />
            <mxPoint x="520" y="1300" as="targetPoint" />
          </mxGeometry>
        </mxCell>
        <mxCell id="_nA0ZAv1kjZIPs0XtCLw-50" value="Longest Section(in Duration)" style="html=1;verticalAlign=bottom;endArrow=block;edgeStyle=elbowEdgeStyle;elbow=vertical;curved=0;rounded=0;" parent="1" target="fWIIAYlJlUgWAXTDILyd-2" edge="1">
          <mxGeometry width="80" relative="1" as="geometry">
            <mxPoint x="80" y="1530" as="sourcePoint" />
            <mxPoint x="160" y="1530" as="targetPoint" />
          </mxGeometry>
        </mxCell>
        <mxCell id="_nA0ZAv1kjZIPs0XtCLw-51" value="&amp;nbsp;Lessons duration to check" style="html=1;verticalAlign=bottom;endArrow=block;edgeStyle=elbowEdgeStyle;elbow=vertical;curved=0;rounded=0;" parent="1" target="fWIIAYlJlUgWAXTDILyd-3" edge="1">
          <mxGeometry width="80" relative="1" as="geometry">
            <mxPoint x="300" y="1550" as="sourcePoint" />
            <mxPoint x="380" y="1550" as="targetPoint" />
          </mxGeometry>
        </mxCell>
        <mxCell id="_nA0ZAv1kjZIPs0XtCLw-52" value="Total count of Lessons durations" style="html=1;verticalAlign=bottom;endArrow=open;dashed=1;endSize=8;edgeStyle=elbowEdgeStyle;elbow=vertical;curved=0;rounded=0;" parent="1" target="fWIIAYlJlUgWAXTDILyd-2" edge="1">
          <mxGeometry relative="1" as="geometry">
            <mxPoint x="520" y="1580" as="sourcePoint" />
            <mxPoint x="440" y="1580" as="targetPoint" />
          </mxGeometry>
        </mxCell>
        <mxCell id="_nA0ZAv1kjZIPs0XtCLw-53" value="Longest Section returned" style="html=1;verticalAlign=bottom;endArrow=open;dashed=1;endSize=8;edgeStyle=elbowEdgeStyle;elbow=vertical;curved=0;rounded=0;" parent="1" target="fWIIAYlJlUgWAXTDILyd-1" edge="1">
          <mxGeometry relative="1" as="geometry">
            <mxPoint x="300" y="1610" as="sourcePoint" />
            <mxPoint x="220" y="1610" as="targetPoint" />
          </mxGeometry>
        </mxCell>
        <mxCell id="_nA0ZAv1kjZIPs0XtCLw-54" value="Longest Lesson" style="html=1;verticalAlign=bottom;endArrow=block;edgeStyle=elbowEdgeStyle;elbow=vertical;curved=0;rounded=0;" parent="1" target="fWIIAYlJlUgWAXTDILyd-3" edge="1">
          <mxGeometry width="80" relative="1" as="geometry">
            <mxPoint x="80" y="1660" as="sourcePoint" />
            <mxPoint x="300" y="1660" as="targetPoint" />
          </mxGeometry>
        </mxCell>
        <mxCell id="_nA0ZAv1kjZIPs0XtCLw-55" value="Compare Individual Lesson Duration" style="html=1;verticalAlign=bottom;endArrow=block;edgeStyle=elbowEdgeStyle;elbow=vertical;curved=0;rounded=0;" parent="1" edge="1">
          <mxGeometry width="80" relative="1" as="geometry">
            <mxPoint x="520" y="1680" as="sourcePoint" />
            <mxPoint x="710" y="1680" as="targetPoint" />
          </mxGeometry>
        </mxCell>
        <mxCell id="_nA0ZAv1kjZIPs0XtCLw-57" value="Longest Lesson returned" style="html=1;verticalAlign=bottom;endArrow=open;dashed=1;endSize=8;edgeStyle=elbowEdgeStyle;elbow=vertical;curved=0;rounded=0;" parent="1" source="fWIIAYlJlUgWAXTDILyd-4" edge="1">
          <mxGeometry relative="1" as="geometry">
            <mxPoint x="519.5" y="1720" as="sourcePoint" />
            <mxPoint x="80" y="1720" as="targetPoint" />
          </mxGeometry>
        </mxCell>
        <mxCell id="_nA0ZAv1kjZIPs0XtCLw-58" value="Longest Section(in Count)" style="html=1;verticalAlign=bottom;endArrow=block;edgeStyle=elbowEdgeStyle;elbow=vertical;curved=0;rounded=0;" parent="1" edge="1">
          <mxGeometry width="80" relative="1" as="geometry">
            <mxPoint x="80" y="1790" as="sourcePoint" />
            <mxPoint x="300" y="1790" as="targetPoint" />
          </mxGeometry>
        </mxCell>
        <mxCell id="_nA0ZAv1kjZIPs0XtCLw-59" value="&amp;nbsp;Lessons Count to check" style="html=1;verticalAlign=bottom;endArrow=block;edgeStyle=elbowEdgeStyle;elbow=vertical;curved=0;rounded=0;" parent="1" edge="1">
          <mxGeometry width="80" relative="1" as="geometry">
            <mxPoint x="300" y="1810" as="sourcePoint" />
            <mxPoint x="520" y="1810" as="targetPoint" />
          </mxGeometry>
        </mxCell>
        <mxCell id="_nA0ZAv1kjZIPs0XtCLw-60" value="Total count of Lessons&amp;nbsp;" style="html=1;verticalAlign=bottom;endArrow=open;dashed=1;endSize=8;edgeStyle=elbowEdgeStyle;elbow=vertical;curved=0;rounded=0;" parent="1" edge="1">
          <mxGeometry relative="1" as="geometry">
            <mxPoint x="520" y="1840" as="sourcePoint" />
            <mxPoint x="300" y="1840" as="targetPoint" />
          </mxGeometry>
        </mxCell>
        <mxCell id="_nA0ZAv1kjZIPs0XtCLw-61" value="Longest Section returned" style="html=1;verticalAlign=bottom;endArrow=open;dashed=1;endSize=8;edgeStyle=elbowEdgeStyle;elbow=vertical;curved=0;rounded=0;" parent="1" edge="1">
          <mxGeometry relative="1" as="geometry">
            <mxPoint x="300" y="1870" as="sourcePoint" />
            <mxPoint x="80" y="1870" as="targetPoint" />
          </mxGeometry>
        </mxCell>
        <mxCell id="_nA0ZAv1kjZIPs0XtCLw-62" value="More CodeLesson Section" style="html=1;verticalAlign=bottom;endArrow=block;edgeStyle=elbowEdgeStyle;elbow=horizontal;curved=0;rounded=0;" parent="1" edge="1">
          <mxGeometry width="80" relative="1" as="geometry">
            <mxPoint x="80" y="1930" as="sourcePoint" />
            <mxPoint x="300" y="1930" as="targetPoint" />
          </mxGeometry>
        </mxCell>
        <mxCell id="_nA0ZAv1kjZIPs0XtCLw-63" value="CodeLessons Count to check" style="html=1;verticalAlign=bottom;endArrow=block;edgeStyle=elbowEdgeStyle;elbow=vertical;curved=0;rounded=0;" parent="1" edge="1">
          <mxGeometry width="80" relative="1" as="geometry">
            <mxPoint x="300" y="1950" as="sourcePoint" />
            <mxPoint x="520" y="1950" as="targetPoint" />
          </mxGeometry>
        </mxCell>
        <mxCell id="_nA0ZAv1kjZIPs0XtCLw-64" value="Total count of CodeLessons&amp;nbsp;" style="html=1;verticalAlign=bottom;endArrow=open;dashed=1;endSize=8;edgeStyle=elbowEdgeStyle;elbow=vertical;curved=0;rounded=0;" parent="1" edge="1">
          <mxGeometry relative="1" as="geometry">
            <mxPoint x="520" y="1980" as="sourcePoint" />
            <mxPoint x="300" y="1980" as="targetPoint" />
          </mxGeometry>
        </mxCell>
        <mxCell id="_nA0ZAv1kjZIPs0XtCLw-65" value="More CodeLesson Section returned" style="html=1;verticalAlign=bottom;endArrow=open;dashed=1;endSize=8;edgeStyle=elbowEdgeStyle;elbow=vertical;curved=0;rounded=0;" parent="1" edge="1">
          <mxGeometry relative="1" as="geometry">
            <mxPoint x="300" y="2010" as="sourcePoint" />
            <mxPoint x="80" y="2010" as="targetPoint" />
          </mxGeometry>
        </mxCell>
        <mxCell id="_nA0ZAv1kjZIPs0XtCLw-66" value="Check for the Type" style="html=1;verticalAlign=bottom;endArrow=block;edgeStyle=elbowEdgeStyle;elbow=vertical;curved=0;rounded=0;" parent="1" target="fWIIAYlJlUgWAXTDILyd-4" edge="1">
          <mxGeometry width="80" relative="1" as="geometry">
            <mxPoint x="520" y="1960" as="sourcePoint" />
            <mxPoint x="600" y="1960" as="targetPoint" />
          </mxGeometry>
        </mxCell>
        <mxCell id="6bYIHOK9dWR5kiVuX88q-1" value="Take the Lesson(with the Key)" style="html=1;verticalAlign=bottom;endArrow=block;edgeStyle=elbowEdgeStyle;elbow=vertical;curved=0;rounded=0;" parent="1" edge="1">
          <mxGeometry width="80" relative="1" as="geometry">
            <mxPoint x="80" y="2044" as="sourcePoint" />
            <mxPoint x="519.5" y="2044.5882352941176" as="targetPoint" />
          </mxGeometry>
        </mxCell>
        <mxCell id="6bYIHOK9dWR5kiVuX88q-2" value="Alternative" style="shape=umlFrame;whiteSpace=wrap;html=1;pointerEvents=0;width=76;height=30;" parent="1" vertex="1">
          <mxGeometry x="10" y="2082" width="590" height="160" as="geometry" />
        </mxCell>
        <mxCell id="6bYIHOK9dWR5kiVuX88q-3" value="[if lesson exists]" style="text;html=1;strokeColor=none;fillColor=none;align=center;verticalAlign=middle;whiteSpace=wrap;rounded=0;" parent="1" vertex="1">
          <mxGeometry x="10" y="2120" width="60" height="30" as="geometry" />
        </mxCell>
        <mxCell id="6bYIHOK9dWR5kiVuX88q-4" value="[else]" style="text;html=1;strokeColor=none;fillColor=none;align=center;verticalAlign=middle;whiteSpace=wrap;rounded=0;" parent="1" vertex="1">
          <mxGeometry x="10" y="2180" width="60" height="30" as="geometry" />
        </mxCell>
        <mxCell id="6bYIHOK9dWR5kiVuX88q-5" value="" style="endArrow=none;dashed=1;html=1;dashPattern=1 3;strokeWidth=2;rounded=0;entryX=1;entryY=0.563;entryDx=0;entryDy=0;entryPerimeter=0;exitX=0;exitY=0.513;exitDx=0;exitDy=0;exitPerimeter=0;" parent="1" target="_nA0ZAv1kjZIPs0XtCLw-44" edge="1">
          <mxGeometry width="50" height="50" relative="1" as="geometry">
            <mxPoint x="10" y="1422" as="sourcePoint" />
            <mxPoint x="374" y="1422" as="targetPoint" />
          </mxGeometry>
        </mxCell>
        <mxCell id="6bYIHOK9dWR5kiVuX88q-6" value="Lesson returned" style="html=1;verticalAlign=bottom;endArrow=open;dashed=1;endSize=8;edgeStyle=elbowEdgeStyle;elbow=vertical;curved=0;rounded=0;" parent="1" edge="1">
          <mxGeometry relative="1" as="geometry">
            <mxPoint x="520" y="2135" as="sourcePoint" />
            <mxPoint x="79.5" y="2135" as="targetPoint" />
          </mxGeometry>
        </mxCell>
        <mxCell id="6bYIHOK9dWR5kiVuX88q-7" value="No Lesson Exists with the key in the list" style="html=1;verticalAlign=bottom;endArrow=open;dashed=1;endSize=8;edgeStyle=elbowEdgeStyle;elbow=vertical;curved=0;rounded=0;" parent="1" edge="1">
          <mxGeometry relative="1" as="geometry">
            <mxPoint x="520" y="2200" as="sourcePoint" />
            <mxPoint x="79.5" y="2200" as="targetPoint" />
          </mxGeometry>
        </mxCell>
        <mxCell id="6bYIHOK9dWR5kiVuX88q-8" value="" style="endArrow=none;dashed=1;html=1;dashPattern=1 3;strokeWidth=2;rounded=0;entryX=1;entryY=0.563;entryDx=0;entryDy=0;entryPerimeter=0;exitX=0;exitY=0.513;exitDx=0;exitDy=0;exitPerimeter=0;" parent="1" edge="1">
          <mxGeometry width="50" height="50" relative="1" as="geometry">
            <mxPoint x="10" y="2162" as="sourcePoint" />
            <mxPoint x="600" y="2162" as="targetPoint" />
          </mxGeometry>
        </mxCell>
        <mxCell id="6bYIHOK9dWR5kiVuX88q-11" value="" style="html=1;points=[];perimeter=orthogonalPerimeter;outlineConnect=0;targetShapes=umlLifeline;portConstraint=eastwest;newEdgeStyle={&quot;edgeStyle&quot;:&quot;elbowEdgeStyle&quot;,&quot;elbow&quot;:&quot;vertical&quot;,&quot;curved&quot;:0,&quot;rounded&quot;:0};" parent="1" vertex="1">
          <mxGeometry x="515" y="350" width="10" height="450" as="geometry" />
        </mxCell>
      </root>
    </mxGraphModel>
  </diagram>
  <diagram id="-1TEX2v3ToWfJU-pZSqG" name="Entity_Relationship_Diagram">
    <mxGraphModel dx="1434" dy="2012" grid="1" gridSize="10" guides="1" tooltips="1" connect="1" arrows="1" fold="1" page="1" pageScale="1" pageWidth="827" pageHeight="1169" math="0" shadow="0">
      <root>
        <mxCell id="0" />
        <mxCell id="1" parent="0" />
        <mxCell id="eNX5shrZSpuKOvrD2QJF-1" value="Course" style="swimlane;childLayout=stackLayout;horizontal=1;startSize=50;horizontalStack=0;rounded=1;fontSize=14;fontStyle=0;strokeWidth=2;resizeParent=0;resizeLast=1;shadow=0;dashed=0;align=center;arcSize=4;whiteSpace=wrap;html=1;" parent="1" vertex="1">
          <mxGeometry x="81" y="-960" width="179" height="220" as="geometry" />
        </mxCell>
        <mxCell id="eNX5shrZSpuKOvrD2QJF-3" value="Section" style="swimlane;childLayout=stackLayout;horizontal=1;startSize=50;horizontalStack=0;rounded=1;fontSize=14;fontStyle=0;strokeWidth=2;resizeParent=0;resizeLast=1;shadow=0;dashed=0;align=center;arcSize=4;whiteSpace=wrap;html=1;" parent="1" vertex="1">
          <mxGeometry x="320" y="-960" width="160" height="220" as="geometry" />
        </mxCell>
        <mxCell id="d5irSMOkyQqCCQt1JDnF-1" value="-name:String" style="text;align=left;verticalAlign=top;spacingLeft=4;spacingRight=4;overflow=hidden;rotatable=0;points=[[0,0.5],[1,0.5]];portConstraint=eastwest;rounded=0;shadow=0;html=0;" parent="eNX5shrZSpuKOvrD2QJF-3" vertex="1">
          <mxGeometry y="50" width="160" height="26" as="geometry" />
        </mxCell>
        <mxCell id="d5irSMOkyQqCCQt1JDnF-2" value="-lessons:ArrayList&lt;Lesson&gt;" style="text;align=left;verticalAlign=top;spacingLeft=4;spacingRight=4;overflow=hidden;rotatable=0;points=[[0,0.5],[1,0.5]];portConstraint=eastwest;" parent="eNX5shrZSpuKOvrD2QJF-3" vertex="1">
          <mxGeometry y="76" width="160" height="144" as="geometry" />
        </mxCell>
        <mxCell id="eNX5shrZSpuKOvrD2QJF-5" value="Lesson" style="swimlane;childLayout=stackLayout;horizontal=1;startSize=50;horizontalStack=0;rounded=1;fontSize=14;fontStyle=0;strokeWidth=2;resizeParent=0;resizeLast=1;shadow=0;dashed=0;align=center;arcSize=4;whiteSpace=wrap;html=1;" parent="1" vertex="1">
          <mxGeometry x="544" y="-960" width="160" height="220" as="geometry" />
        </mxCell>
        <mxCell id="RScHYiQC5dj63k_Uttjs-4" value="-name:String" style="text;align=left;verticalAlign=top;spacingLeft=4;spacingRight=4;overflow=hidden;rotatable=0;points=[[0,0.5],[1,0.5]];portConstraint=eastwest;rounded=0;shadow=0;html=0;" parent="eNX5shrZSpuKOvrD2QJF-5" vertex="1">
          <mxGeometry y="50" width="160" height="26" as="geometry" />
        </mxCell>
        <mxCell id="RScHYiQC5dj63k_Uttjs-6" value="-type:String" style="text;align=left;verticalAlign=top;spacingLeft=4;spacingRight=4;overflow=hidden;rotatable=0;points=[[0,0.5],[1,0.5]];portConstraint=eastwest;" parent="eNX5shrZSpuKOvrD2QJF-5" vertex="1">
          <mxGeometry y="76" width="160" height="26" as="geometry" />
        </mxCell>
        <mxCell id="RScHYiQC5dj63k_Uttjs-5" value="-duration(in min):double" style="text;align=left;verticalAlign=top;spacingLeft=4;spacingRight=4;overflow=hidden;rotatable=0;points=[[0,0.5],[1,0.5]];portConstraint=eastwest;" parent="eNX5shrZSpuKOvrD2QJF-5" vertex="1">
          <mxGeometry y="102" width="160" height="118" as="geometry" />
        </mxCell>
        <mxCell id="XbcbmFN5M_hPeCShi5sn-2" value="" style="endArrow=ERmany;html=1;rounded=0;endFill=0;exitX=1.006;exitY=0.183;exitDx=0;exitDy=0;exitPerimeter=0;startArrow=ERone;startFill=0;entryX=-0.025;entryY=0.183;entryDx=0;entryDy=0;entryPerimeter=0;" parent="1" edge="1">
          <mxGeometry width="50" height="50" relative="1" as="geometry">
            <mxPoint x="261.07400000000007" y="-924.74" as="sourcePoint" />
            <mxPoint x="316" y="-924.74" as="targetPoint" />
            <Array as="points" />
          </mxGeometry>
        </mxCell>
        <mxCell id="XbcbmFN5M_hPeCShi5sn-3" value="" style="endArrow=ERmany;html=1;rounded=0;endFill=0;exitX=1.006;exitY=0.183;exitDx=0;exitDy=0;exitPerimeter=0;startArrow=ERone;startFill=0;" parent="1" edge="1">
          <mxGeometry width="50" height="50" relative="1" as="geometry">
            <mxPoint x="481" y="-924" as="sourcePoint" />
            <mxPoint x="540" y="-924" as="targetPoint" />
            <Array as="points" />
          </mxGeometry>
        </mxCell>
        <mxCell id="xvZKwvg-W26stZDAAClg-1" value="-author:String" style="text;align=left;verticalAlign=top;spacingLeft=4;spacingRight=4;overflow=hidden;rotatable=0;points=[[0,0.5],[1,0.5]];portConstraint=eastwest;" parent="1" vertex="1">
          <mxGeometry x="81" y="-874" width="159" height="26" as="geometry" />
        </mxCell>
        <mxCell id="xvZKwvg-W26stZDAAClg-2" value="-datePublished:String" style="text;align=left;verticalAlign=top;spacingLeft=4;spacingRight=4;overflow=hidden;rotatable=0;points=[[0,0.5],[1,0.5]];portConstraint=eastwest;rounded=0;shadow=0;html=0;" parent="1" vertex="1">
          <mxGeometry x="81" y="-850" width="159" height="28" as="geometry" />
        </mxCell>
        <mxCell id="xvZKwvg-W26stZDAAClg-3" value="-cost:double" style="text;align=left;verticalAlign=top;spacingLeft=4;spacingRight=4;overflow=hidden;rotatable=0;points=[[0,0.5],[1,0.5]];portConstraint=eastwest;rounded=0;shadow=0;html=0;" parent="1" vertex="1">
          <mxGeometry x="81" y="-822" width="159" height="26" as="geometry" />
        </mxCell>
        <mxCell id="xvZKwvg-W26stZDAAClg-4" value="-rating:double" style="text;align=left;verticalAlign=top;spacingLeft=4;spacingRight=4;overflow=hidden;rotatable=0;points=[[0,0.5],[1,0.5]];portConstraint=eastwest;rounded=0;shadow=0;html=0;" parent="1" vertex="1">
          <mxGeometry x="81" y="-796" width="159" height="26" as="geometry" />
        </mxCell>
        <mxCell id="xvZKwvg-W26stZDAAClg-6" value="-sections:ArrayList&lt;Section&gt;" style="text;align=left;verticalAlign=top;spacingLeft=4;spacingRight=4;overflow=hidden;rotatable=0;points=[[0,0.5],[1,0.5]];portConstraint=eastwest;rounded=0;shadow=0;html=0;" parent="1" vertex="1">
          <mxGeometry x="81" y="-776" width="179" height="26" as="geometry" />
        </mxCell>
        <mxCell id="4gwiLondMziAQ7J3oL68-1" value="" style="shape=table;startSize=0;container=1;collapsible=1;childLayout=tableLayout;fixedRows=1;rowLines=0;fontStyle=0;align=center;resizeLast=1;strokeColor=none;fillColor=none;collapsible=0;" parent="1" vertex="1">
          <mxGeometry x="54" y="-908" width="180" height="30" as="geometry" />
        </mxCell>
        <mxCell id="4gwiLondMziAQ7J3oL68-2" value="" style="shape=tableRow;horizontal=0;startSize=0;swimlaneHead=0;swimlaneBody=0;fillColor=none;collapsible=0;dropTarget=0;points=[[0,0.5],[1,0.5]];portConstraint=eastwest;top=0;left=0;right=0;bottom=1;" parent="4gwiLondMziAQ7J3oL68-1" vertex="1">
          <mxGeometry width="180" height="30" as="geometry" />
        </mxCell>
        <mxCell id="4gwiLondMziAQ7J3oL68-3" value="PK" style="shape=partialRectangle;connectable=0;fillColor=none;top=0;left=0;bottom=0;right=0;fontStyle=1;overflow=hidden;whiteSpace=wrap;html=1;" parent="4gwiLondMziAQ7J3oL68-2" vertex="1">
          <mxGeometry width="30" height="30" as="geometry">
            <mxRectangle width="30" height="30" as="alternateBounds" />
          </mxGeometry>
        </mxCell>
        <mxCell id="4gwiLondMziAQ7J3oL68-4" value="-id:int" style="shape=partialRectangle;connectable=0;fillColor=none;top=0;left=0;bottom=0;right=0;align=left;spacingLeft=6;fontStyle=5;overflow=hidden;whiteSpace=wrap;html=1;" parent="4gwiLondMziAQ7J3oL68-2" vertex="1">
          <mxGeometry x="30" width="150" height="30" as="geometry">
            <mxRectangle width="150" height="30" as="alternateBounds" />
          </mxGeometry>
        </mxCell>
      </root>
    </mxGraphModel>
  </diagram>
</mxfile>
